<?xml version="1.0" encoding="UTF-8"?>
<svg version="1.1" xmlns="http://www.w3.org/2000/svg" width="500" height="500">
<path d="M0 0 C0.47308594 0.35626465 0.94617188 0.7125293 1.43359375 1.07958984 C6.59798565 4.96169243 11.79332105 8.79988349 17 12.625 C25.70712355 19.02990397 34.36564288 25.49743588 43 32 C41.503308 35.82206092 39.39629697 37.43499608 36.0625 39.75 C35.06476563 40.45253906 34.06703125 41.15507812 33.0390625 41.87890625 C32.03617188 42.57886719 31.03328125 43.27882812 30 44 C28.30946431 45.22498817 26.62194615 46.45415166 24.9375 47.6875 C24.04933594 48.32945312 23.16117188 48.97140625 22.24609375 49.6328125 C19.61533864 51.54034477 17.0125085 53.48361745 14.41015625 55.4296875 C12.77356047 56.6407912 11.13684131 57.85172817 9.5 59.0625 C8.70972412 59.65957764 7.91944824 60.25665527 7.10522461 60.87182617 C6.35893799 61.4207251 5.61265137 61.96962402 4.84375 62.53515625 C4.17537109 63.034104 3.50699219 63.53305176 2.81835938 64.04711914 C2.21830078 64.36156982 1.61824219 64.67602051 1 65 C0.01 64.67 -0.98 64.34 -2 64 C-2 59.38 -2 54.76 -2 50 C-10.1891364 49.90931575 -18.37787671 49.83606483 -26.56738186 49.79275131 C-30.37087732 49.77195382 -34.17400885 49.74378193 -37.97729492 49.69824219 C-41.65371801 49.65450135 -45.32979298 49.63080408 -49.00645638 49.62049103 C-50.40299007 49.61314986 -51.79950659 49.59881517 -53.19589043 49.57707977 C-61.14134895 49.45842175 -68.18677435 49.48644311 -75 54 C-78.15522805 57.64823244 -78.67235226 61.24910778 -79 66 C-78.7397104 68.34260643 -78.42579972 70.6817571 -78 73 C-77.34 73 -76.68 73 -76 73 C-75.79375 73.78375 -75.5875 74.5675 -75.375 75.375 C-74.24081664 78.23886946 -74.24081664 78.23886946 -71.359375 79.03125 C-70.25078125 79.3509375 -69.1421875 79.670625 -68 80 C-66.92492187 80.33257812 -65.84984375 80.66515625 -64.7421875 81.0078125 C-57.00419495 83.27409285 -49.21542338 85.20817257 -41.33984375 86.9296875 C-40.56356628 87.09961212 -39.78728882 87.26953674 -38.98748779 87.4446106 C-35.06400587 88.30016898 -31.13817781 89.14263883 -27.20849609 89.96923828 C-13.66582132 92.85753017 -0.59515732 96.09210271 11 104 C11.99 104.66 12.98 105.32 14 106 C14 106.66 14 107.32 14 108 C14.66 108 15.32 108 16 108 C25.92663884 119.99705208 29.07263849 133.73166143 28 149 C25.85488243 162.79243563 19.67655241 174.02883892 8.734375 182.8203125 C-2.29651678 190.49565329 -13.2812315 193.31990325 -26.59692383 193.23950195 C-28.12544479 193.24252319 -28.12544479 193.24252319 -29.68484497 193.24560547 C-31.88152102 193.24913196 -34.07820726 193.24840752 -36.27488136 193.24382973 C-39.75073009 193.23821061 -43.22624842 193.24743554 -46.70207214 193.2610321 C-56.57866008 193.29806849 -66.45513156 193.31665507 -76.33178711 193.30541992 C-82.38532251 193.29957896 -88.43838754 193.31777113 -94.49182701 193.35130882 C-96.79673638 193.35927238 -99.10169688 193.357973 -101.40659523 193.34728432 C-104.62160433 193.33300523 -107.83512274 193.34917557 -111.05004883 193.37231445 C-112.00335587 193.36054672 -112.9566629 193.34877899 -113.93885803 193.33665466 C-119.30671136 193.35854305 -119.30671136 193.35854305 -123.59745789 196.39933777 C-125.02004274 199.03716422 -125.44983381 200.36495123 -125.25 203.3125 C-125.1675 204.529375 -125.085 205.74625 -125 207 C-118.95123452 208.75650023 -113.58424614 209.28170003 -107.3046875 209.23046875 C-106.35116898 209.23050903 -105.39765045 209.23054932 -104.41523743 209.23059082 C-101.23502489 209.22716436 -98.05514473 209.20811104 -94.875 209.1875 C-92.62150167 209.17853128 -90.36800227 209.16983042 -88.11450195 209.16137695 C-82.49713416 209.13575074 -76.87996943 209.09628287 -71.26273632 209.04993153 C-66.89792837 209.01409884 -62.53311661 208.98349095 -58.16824722 208.9561739 C-49.41558512 208.90124851 -40.66330029 208.82645654 -31.91094971 208.73452759 C-28.76786132 208.7018812 -25.62481474 208.67552415 -22.48162842 208.65438843 C-18.74412038 208.62863036 -15.00703934 208.58822863 -11.26979637 208.53700256 C-9.8867521 208.52036531 -8.503638 208.50867391 -7.12050819 208.50233459 C0.01425435 208.46626901 5.6386132 208.33284123 12 205 C12.99 205 13.98 205 15 205 C15 204.34 15 203.68 15 203 C15.62003906 202.56558594 16.24007812 202.13117188 16.87890625 201.68359375 C23.63533194 196.32075862 24.66006307 181.72551918 26.65625 173.515625 C29.61876451 161.34190186 32.71763965 149.23410843 36.11883545 137.17541504 C38.9436541 127.1594784 41.7466178 117.14269696 44.2890625 107.05078125 C44.55722778 105.98977455 44.55722778 105.98977455 44.83081055 104.90733337 C45.67117596 101.5739856 46.49934624 98.23857909 47.31152344 94.89819336 C51.04303122 79.95696878 51.04303122 79.95696878 56 75 C62.13287142 74.38671286 65.05307935 75.01833216 70 79 C71 80 71 80 71.31640625 83.56640625 C71.22522694 90.90851194 68.89212569 97.91690045 66.9375 104.9375 C66.52401381 106.45405946 66.11159103 107.97090923 65.70019531 109.48803711 C64.86997905 112.54403408 64.03391019 115.59833158 63.19287109 118.65136719 C62.11574594 122.56718723 61.06285929 126.489085 60.01953125 130.4140625 C57.47224754 139.99292497 54.87946659 149.54113466 51.98339844 159.02050781 C50.53429124 163.88754153 49.2916127 168.79735069 48.08984375 173.73046875 C47.91868546 174.42994629 47.74752716 175.12942383 47.57118225 175.85009766 C46.71032376 179.37436623 45.86099024 182.90080763 45.02954102 186.43212891 C41.45676834 201.33740647 37.34864899 214.49525875 24 223 C20.37755537 225.08840146 16.71201267 227.07575814 13 229 C13.66 230.093125 14.32 231.18625 15 232.3125 C17.8763692 238.11660213 18.20288017 244.14692394 16.26953125 250.33984375 C13.72249367 255.92253428 10.03957299 258.64028468 5 262 C-1.1250685 263.32781205 -6.15084798 263.14866809 -12 261 C-12.99 260.67 -13.98 260.34 -15 260 C-15 259.34 -15 258.68 -15 258 C-15.5775 257.79375 -16.155 257.5875 -16.75 257.375 C-19.96320491 255.41137478 -21.7715445 253.52706037 -23 250 C-23.63712732 243.37232189 -23.88940956 237.11399064 -21 231 C-20.34 231 -19.68 231 -19 231 C-19 230.34 -19 229.68 -19 229 C-41.44 229.33 -63.88 229.66 -87 230 C-87.13360628 232.10393256 -87.13360628 232.10393256 -86.015625 234.25 C-84.8744097 237.34005988 -84.7332406 239.71515682 -84.75 243 C-84.74226563 244.5159375 -84.74226563 244.5159375 -84.734375 246.0625 C-85.00636574 249.0703976 -85.73678882 251.27306793 -87 254 C-87.66 254 -88.32 254 -89 254 C-89.66 255.32 -90.32 256.64 -91 258 C-91.66 258 -92.32 258 -93 258 C-93 258.66 -93 259.32 -93 260 C-100.2385335 263.23540512 -106.22859609 263.09141544 -114 262 C-114 261.34 -114 260.68 -114 260 C-114.59425781 259.90460938 -115.18851562 259.80921875 -115.80078125 259.7109375 C-118.47418572 258.84671083 -119.4189477 257.77999689 -121.1875 255.625 C-121.69667969 255.01914062 -122.20585937 254.41328125 -122.73046875 253.7890625 C-126.16182218 248.95349367 -125.44828072 242.65580842 -125 237 C-123.5 233.375 -123.5 233.375 -122 231 C-122 230.34 -122 229.68 -122 229 C-122.70125 228.78085937 -123.4025 228.56171875 -124.125 228.3359375 C-130.40745323 226.2360958 -136.38403533 223.93686061 -141 219 C-141.7109375 216.8125 -141.7109375 216.8125 -142 215 C-142.66 215 -143.32 215 -144 215 C-147.61755336 206.08531495 -148.48681302 197.13297218 -145 188 C-142.93951215 183.81056955 -140.58833343 179.88250015 -138 176 C-137.34 176 -136.68 176 -136 176 C-136 175.34 -136 174.68 -136 174 C-135.34 174 -134.68 174 -134 174 C-134 173.34 -134 172.68 -134 172 C-133.34 172 -132.68 172 -132 172 C-134.51334419 158.74782155 -137.54033467 145.72791165 -141.4375 132.8125 C-143.54874613 125.79566407 -145.31367723 118.73229235 -146.97973633 111.59790039 C-148.80119009 103.80004425 -150.69586222 96.02191605 -152.625 88.25 C-152.9142334 87.07203857 -153.2034668 85.89407715 -153.50146484 84.68041992 C-154.8891727 79.10607478 -156.39997056 73.65998436 -158.28125 68.23388672 C-159.68456693 63.87235482 -160.65972732 59.39946177 -161.6875 54.9375 C-161.91244141 53.97650391 -162.13738281 53.01550781 -162.36914062 52.02539062 C-162.91652639 49.68444298 -163.46007241 47.34267692 -164 45 C-166.27011793 44.5585012 -168.54086758 44.12110282 -170.8125 43.6875 C-171.51938965 43.55214844 -172.2262793 43.41679687 -172.95458984 43.27734375 C-176.98776276 42.5193143 -181.02118542 41.83169998 -185.08203125 41.23828125 C-185.92209717 41.11428955 -186.76216309 40.99029785 -187.62768555 40.86254883 C-189.25939944 40.62566398 -190.89237352 40.39726228 -192.52661133 40.1784668 C-197.18641032 39.49846846 -200.91880693 38.50959208 -205 36 C-207.40415469 32.58765141 -208 30.61810309 -208 26.4375 C-206.72485588 22.05419209 -205.86360816 20.49998175 -202 18 C-194.27973365 16.7193871 -186.686117 18.48377682 -179.15625 20.1484375 C-176.12603213 20.80262196 -173.10155726 21.29855884 -170.03125 21.7265625 C-169.18570557 21.84604248 -168.34016113 21.96552246 -167.46899414 22.08862305 C-165.82136016 22.31569113 -164.17209431 22.53130995 -162.52124023 22.73364258 C-156.51215145 23.58027084 -152.32340195 25.03124865 -148.42578125 30.01147461 C-143.99445353 36.73593216 -142.17814225 43.7128044 -140.4375 51.5 C-139.84950605 53.99002087 -139.25966133 56.47960542 -138.66796875 58.96875 C-138.38614746 60.17144531 -138.10432617 61.37414062 -137.81396484 62.61328125 C-136.57433213 67.7711052 -135.14897239 72.86894872 -133.68530273 77.96679688 C-132.57261426 81.86494709 -131.54796075 85.77549062 -130.57421875 89.7109375 C-129.27447623 94.95764987 -127.87943702 100.17269863 -126.45043945 105.38549805 C-123.86323395 114.82449441 -121.39688009 124.25355809 -119.35668945 133.82617188 C-117.82899956 140.9559482 -115.94815606 147.97420314 -114 155 C-110.38030223 155 -107.5962241 152.45994431 -104.8125 150.3125 C-103 149 -103 149 -101 149 C-101 148.34 -101 147.68 -101 147 C-99.13671875 145.4921875 -99.13671875 145.4921875 -96.6875 143.875 C-95.88699219 143.33617187 -95.08648437 142.79734375 -94.26171875 142.2421875 C-92 141 -92 141 -89 141 C-88.505 149.91 -88.505 149.91 -88 159 C-79.5501029 159.04533394 -71.10030168 159.0819637 -62.65031528 159.10362434 C-58.72589634 159.11402469 -54.80156551 159.12811468 -50.87719727 159.15087891 C-47.08409201 159.17274194 -43.29107108 159.18459677 -39.49790764 159.18975449 C-38.05675875 159.19342624 -36.61561404 159.2005957 -35.17450142 159.21146011 C-27.5255856 159.26678774 -20.41498919 159.06746925 -13 157 C-13 156.34 -13 155.68 -13 155 C-12.34 155 -11.68 155 -11 155 C-9.28862709 148.53481344 -7.89267142 142.21465717 -11 136 C-18.6715163 124.88952812 -42.82910076 123.92699563 -55.15551758 121.35449219 C-82.8125 115.5625 -82.8125 115.5625 -95 109 C-95 108.34 -95 107.68 -95 107 C-95.70125 106.773125 -96.4025 106.54625 -97.125 106.3125 C-100.74128535 104.66158712 -103.08769976 102.7091165 -106 100 C-106 99.34 -106 98.68 -106 98 C-106.66 98 -107.32 98 -108 98 C-110 95 -110 95 -110 92 C-110.66 92 -111.32 92 -112 92 C-117.89645963 76.68637912 -121.21969023 60.95190931 -114.84765625 45.140625 C-111.44995892 37.72404468 -107.07451242 31.49135923 -101 26 C-100.34 26 -99.68 26 -99 26 C-99 25.34 -99 24.68 -99 24 C-89.00246978 16.25854961 -76.55376478 12.94155205 -64.0925293 12.81054688 C-63.43001663 12.80225357 -62.76750397 12.79396027 -62.08491516 12.78541565 C-60.65758739 12.76812016 -59.23023289 12.75292552 -57.80286217 12.73963928 C-55.54630266 12.71848834 -53.28987918 12.69148218 -51.03340149 12.66296387 C-45.43605397 12.59339029 -39.83861075 12.53357013 -34.2411499 12.47393799 C-29.49724507 12.42308376 -24.75341828 12.36832425 -20.00962257 12.30812073 C-17.78212906 12.28149398 -15.5546283 12.26072123 -13.32707214 12.2401123 C-11.97154382 12.22351979 -10.61601886 12.20664889 -9.26049805 12.18945312 C-8.07280319 12.17692505 -6.88510834 12.16439697 -5.66142273 12.15148926 C-3.07883801 12.30076478 -3.07883801 12.30076478 -2 11 C-1.79224439 9.33795513 -1.63281745 7.66970509 -1.5 6 C-1.11111111 1.11111111 -1.11111111 1.11111111 0 0 Z " fill="#F3F2F2" transform="translate(302,119)"/>
<path d="M0 0 C24.42 0 48.84 0 74 0 C73.67 1.32 73.34 2.64 73 4 C72.34 4 71.68 4 71 4 C71 4.99 71 5.98 71 7 C70.01 6.505 70.01 6.505 69 6 C69.33 5.01 69.66 4.02 70 3 C70.66 3 71.32 3 72 3 C72 2.34 72 1.68 72 1 C63.18563446 1.10748778 54.3713541 1.22011843 45.5571394 1.33933926 C41.46447117 1.39453443 37.37179576 1.447949 33.27905273 1.49731445 C29.33030782 1.54500823 25.38164959 1.59735288 21.43300819 1.65294075 C19.92553169 1.67334158 18.41803144 1.69205841 16.91051292 1.70907402 C14.80117577 1.73316838 12.692002 1.76321591 10.58276367 1.79467773 C9.38141281 1.81022202 8.18006195 1.8257663 6.94230652 1.84178162 C3.93960572 1.87300307 3.93960572 1.87300307 1 3 C0.67 2.01 0.34 1.02 0 0 Z " fill="#8C8988" transform="translate(211,347)"/>
<path d="M0 0 C0.66 0 1.32 0 2 0 C0.34908222 4.29238623 -2.73754566 6.8793915 -6 10 C-6.66 9.67 -7.32 9.34 -8 9 C-6.85459775 7.68712379 -5.70866567 6.37470979 -4.5625 5.0625 C-3.92441406 4.33160156 -3.28632813 3.60070312 -2.62890625 2.84765625 C-1.77458541 1.87860647 -0.91348825 0.91348825 0 0 Z " fill="#C8C5C6" transform="translate(201,145)"/>
<path d="M0 0 C0.5775 0.226875 1.155 0.45375 1.75 0.6875 C0.80125 1.079375 -0.1475 1.47125 -1.125 1.875 C-4.59127338 3.88543856 -5.2302693 4.91449642 -6.25 8.6875 C-6.91 8.6875 -7.57 8.6875 -8.25 8.6875 C-7.38540574 5.44527151 -6.73278055 3.18637323 -4.375 0.75 C-2.25 -0.3125 -2.25 -0.3125 0 0 Z " fill="#8C8586" transform="translate(102.25,137.3125)"/>
<path d="M0 0 C0.6875 1.6875 0.6875 1.6875 1 4 C-0.1875 6.6875 -0.1875 6.6875 -2 9 C-4.1875 9.8125 -4.1875 9.8125 -6 10 C-6 9.34 -6 8.68 -6 8 C-5.38125 7.566875 -4.7625 7.13375 -4.125 6.6875 C-1.60686633 4.68780562 -0.97814895 3.01595927 0 0 Z " fill="#AFADAE" transform="translate(323,314)"/>
<path d="M0 0 C0.66 0 1.32 0 2 0 C1.6875 1.9375 1.6875 1.9375 1 4 C0.01 4.33 -0.98 4.66 -2 5 C-2 5.66 -2 6.32 -2 7 C-2.66 7 -3.32 7 -4 7 C-3.34 5.35 -2.68 3.7 -2 2 C-1.34 2 -0.68 2 0 2 C0 1.34 0 0.68 0 0 Z " fill="#B0AFB0" transform="translate(166,293)"/>
<path d="M0 0 C1.37432457 3.81756824 0.67975039 7.07255329 0 11 C-0.66 11 -1.32 11 -2 11 C-1.125 3.375 -1.125 3.375 0 0 Z " fill="#9B9595" transform="translate(347,224)"/>
</svg>
